<svg width="118" height="22" viewBox="0 0 118 22" fill="none" xmlns="http://www.w3.org/2000/svg">
<g clip-path="url(#clip0_1_31)">
<path d="M112.534 10.0791C111.41 10.0791 110.882 11.2881 110.882 13.1271C110.882 15.2215 111.598 16.6178 112.807 16.6178C113.045 16.6178 113.3 16.5837 113.556 16.4986V11.6627C113.556 10.624 113.351 10.0791 112.534 10.0791ZM113.556 6.82676L112.653 6.36701V5.78806L116.468 5.0218H117.063V16.3283C117.063 16.9073 117.115 17.1967 117.608 17.1967H118V17.946L114.169 18.5249H113.505L113.556 16.9073C112.858 17.9971 111.921 18.5249 110.78 18.5249C108.805 18.5249 107.341 17.0094 107.341 14.1488C107.341 10.7772 109.401 9.02336 111.938 9.02336C112.602 9.02336 113.181 9.17661 113.556 9.48311V6.82676Z" fill="#2F3237"/>
<path d="M102.461 17.0265V12.0373C102.461 11.4073 102.256 10.9816 101.405 10.9816C100.928 10.9816 100.536 11.0667 100.145 11.2029V17.0265C100.145 17.5373 100.366 17.5884 100.996 17.6395V18.3546H95.7345V17.6395C96.3645 17.5884 96.637 17.5373 96.637 17.0265V11.0667L95.7345 10.4878V9.95989L99.5317 8.93822H100.213L100.145 10.658C100.758 9.85772 101.728 8.93822 103.329 8.93822C104.981 8.93822 105.968 9.85772 105.968 11.7308V17.0265C105.968 17.5373 106.241 17.5884 106.871 17.6395V18.3546H101.609V17.6395C102.239 17.5884 102.461 17.5373 102.461 17.0265Z" fill="#2F3237"/>
<path d="M94.1859 11.1859V16.3283C94.1859 16.9073 94.2369 17.1967 94.7308 17.1967H95.1224V17.946L91.2911 18.5249H90.627L90.6781 16.8562C90.0992 17.6395 89.1967 18.5249 87.6131 18.5249C86.0806 18.5249 84.9908 17.6054 84.9908 15.6131V11.5775C84.9908 11.1008 84.8716 10.7091 84.3948 10.5559L84.1394 10.4707V9.78961L87.9536 8.93822H88.6007L88.4985 11.1859V15.3066C88.4985 16.0899 88.805 16.5327 89.5713 16.5327C89.997 16.5327 90.2524 16.4816 90.6781 16.3453V11.5775C90.6781 11.1008 90.5589 10.7091 90.0821 10.5559L89.8267 10.4707V9.78961L93.641 8.93822H94.288L94.1859 11.1859Z" fill="#2F3237"/>
<path d="M78.7737 17.7757C79.6762 17.7757 79.8976 16.5156 79.8976 14.3871C79.8976 11.4754 79.574 9.68744 78.6034 9.68744C77.701 9.68744 77.4796 10.9475 77.4796 13.076C77.4796 15.9878 77.8031 17.7757 78.7737 17.7757ZM78.6886 18.5249C75.7768 18.5249 73.7505 16.737 73.7505 13.8933C73.7505 11.0497 75.7768 8.93822 78.6886 8.93822C81.6003 8.93822 83.6267 10.7261 83.6267 13.5698C83.6267 16.4135 81.6003 18.5249 78.6886 18.5249Z" fill="#2F3237"/>
<path d="M63.2376 6.82676L62.3351 6.36701V5.78806L66.1493 5.0218H66.7453V10.624C67.188 9.87475 68.1246 8.93822 69.606 8.93822C71.5812 8.93822 73.0627 10.2834 73.0627 13.1441C73.0627 16.72 70.7639 18.5249 67.801 18.5249C66.2174 18.5249 64.3955 18.2525 63.2376 17.367V6.82676ZM67.784 17.6565C68.9249 17.6565 69.4868 16.124 69.4868 14.1488C69.4868 11.833 68.6695 10.9816 67.5286 10.9816C67.2561 10.9816 67.0178 11.0156 66.7453 11.1348V15.9537C66.7453 16.9584 66.9496 17.6565 67.784 17.6565Z" fill="#2F3237"/>
<path d="M58.9885 12.3097V16.7029C58.9885 17.4522 59.3631 17.5032 60.3166 17.6395V18.3546H54.5782V17.6395C55.2083 17.5884 55.4807 17.5373 55.4807 17.0265V11.0667L54.5782 10.4878V9.95989L58.3755 8.93822H59.0566L58.9885 11.5946C59.6355 9.55122 60.2656 8.93822 61.3553 8.93822C61.781 8.93822 62.0705 9.05741 62.2578 9.22769V11.833H61.8151C60.7253 11.833 59.7207 11.867 58.9885 12.3097Z" fill="#2F3237"/>
<path d="M50.0485 8.93822C52.6027 8.93822 53.8968 10.5218 53.8968 12.7525V13.1782H48.499C48.499 15.0512 49.5547 16.2432 51.0532 16.2432C52.1259 16.2432 52.9433 15.8856 53.5903 15.0512L53.9479 15.2726C53.4711 17.2478 52.1259 18.5249 49.8953 18.5249C47.3581 18.5249 45.3318 16.9073 45.3318 13.9274C45.3318 10.8453 47.5284 8.93822 50.0485 8.93822ZM49.8271 9.68744C48.9758 9.68744 48.5841 10.7432 48.516 12.3438H50.9169C50.9169 10.658 50.6445 9.68744 49.8271 9.68744Z" fill="#2F3237"/>
<path d="M40.8362 8.93822C43.3904 8.93822 44.6845 10.5218 44.6845 12.7525V13.1782H39.2867C39.2867 15.0512 40.3424 16.2432 41.8409 16.2432C42.9136 16.2432 43.731 15.8856 44.378 15.0512L44.7356 15.2726C44.2588 17.2478 42.9136 18.5249 40.683 18.5249C38.1458 18.5249 36.1195 16.9073 36.1195 13.9274C36.1195 10.8453 38.3161 8.93822 40.8362 8.93822ZM40.6149 9.68744C39.7635 9.68744 39.3718 10.7432 39.3037 12.3438H41.7047C41.7047 10.658 41.4322 9.68744 40.6149 9.68744Z" fill="#2F3237"/>
<path d="M30.159 17.6565C31.2999 17.6565 31.8618 16.124 31.8618 14.1488C31.8618 11.833 31.0445 10.9816 29.9036 10.9816C29.6311 10.9816 29.3928 11.0156 29.1203 11.1348V15.9537C29.1203 16.9584 29.3246 17.6565 30.159 17.6565ZM25.6126 20.6364V11.0667L24.7101 10.4878V9.95989L28.5073 8.93822H29.1884L29.1203 10.624C29.563 9.87475 30.4996 8.93822 31.981 8.93822C33.9562 8.93822 35.4377 10.2834 35.4377 13.1441C35.4377 16.72 33.2751 18.5249 30.4996 18.5249C29.8866 18.5249 29.3757 18.4228 29.1203 18.2354V20.5512C29.1203 21.1472 29.4268 21.1642 30.3804 21.2494V21.9646H24.7101V21.2494C25.3401 21.1983 25.6126 21.1472 25.6126 20.6364Z" fill="#2F3237"/>
<path d="M0.0482097 10.8162L5.78219 1.16663C5.89071 0.984003 6.13811 0.944214 6.29842 1.0836L18.755 11.9148C19.001 12.1287 18.8348 12.5328 18.5095 12.5116L0.318904 11.33C0.0651358 11.3136 -0.0816979 11.0349 0.0482097 10.8162Z" fill="#FE4759"/>
<path d="M11.6838 18.2873H19.1613C19.3494 18.2873 19.5018 18.1349 19.5018 17.9468V14.7788C19.5018 14.5907 19.3494 14.4382 19.1613 14.4382H11.6838C11.4957 14.4382 11.3433 14.5907 11.3433 14.7788V17.9468C11.3433 18.1349 11.4957 18.2873 11.6838 18.2873Z" fill="#FE4759"/>
</g>
<defs>
<clipPath id="clip0_1_31">
<rect width="118" height="22" fill="white"/>
</clipPath>
</defs>
</svg>
